<svg id="Capa_1" enable-background="new 0 0 512 512" height="512" viewBox="0 0 512 512" width="512" xmlns="http://www.w3.org/2000/svg"><g><path d="m256 512c-67.83 0-131.6-26.414-179.564-74.378-47.964-47.963-74.378-111.734-74.378-179.564 0-67.831 26.414-131.601 74.377-179.564 47.965-47.964 111.735-74.378 179.565-74.378s131.6 26.414 179.564 74.378c47.963 47.964 74.377 111.734 74.377 179.564s-26.414 131.601-74.377 179.564c-47.964 47.964-111.734 74.378-179.564 74.378zm0-492.886c-63.824 0-123.829 24.854-168.959 69.985s-69.984 105.135-69.984 168.959 24.854 123.828 69.984 168.959c45.131 45.13 105.135 69.985 168.959 69.985s123.828-24.854 168.959-69.985c45.13-45.131 69.984-105.134 69.984-168.959s-24.854-123.828-69.984-168.959c-45.13-45.13-105.135-69.985-168.959-69.985z" fill="#98bce5"/><path d="m256 411.018c-84.342 0-152.961-68.618-152.961-152.96 0-84.343 68.618-152.961 152.961-152.961s152.961 68.618 152.961 152.961c0 84.342-68.619 152.96-152.961 152.96zm0-290.922c-76.073 0-137.962 61.889-137.962 137.962 0 76.072 61.889 137.962 137.962 137.962s137.962-61.889 137.962-137.962-61.889-137.962-137.962-137.962z" fill="#7a8c98"/><path d="m329.059 262.318c2.758-2.011 2.77-6.038.025-8.066-5.227-3.862-9.336-9.34-11.477-16s-1.994-13.506.003-19.69c1.049-3.248-1.308-6.513-4.721-6.54-6.499-.052-13.043-2.069-18.689-6.199-5.647-4.129-9.552-9.754-11.572-15.931-1.061-3.244-4.886-4.5-7.664-2.516-5.288 3.778-11.768 5.992-18.763 5.971-6.995-.022-13.461-2.277-18.726-6.087-2.765-2.001-6.598-.769-7.679 2.469-2.058 6.165-5.998 11.765-11.671 15.859-5.672 4.094-12.228 6.07-18.727 6.082-3.413.006-5.79 3.257-4.761 6.511 1.959 6.197 2.062 13.044-.12 19.69s-6.325 12.099-11.576 15.928c-2.758 2.011-2.77 6.038-.025 8.066 5.227 3.862 9.336 9.34 11.477 16s1.994 13.506-.003 19.69c-1.049 3.248 1.308 6.513 4.721 6.54 6.499.052 13.043 2.069 18.689 6.199 5.647 4.129 9.552 9.754 11.572 15.931 1.061 3.244 4.886 4.5 7.664 2.516 5.288-3.778 11.768-5.992 18.763-5.971s13.461 2.277 18.726 6.087c2.765 2.001 6.598.769 7.679-2.469 2.058-6.165 5.999-11.765 11.671-15.859s12.228-6.071 18.728-6.082c3.413-.006 5.79-3.257 4.761-6.511-1.959-6.197-2.062-13.044.12-19.69 2.182-6.645 6.324-12.098 11.575-15.928z" fill="#ffd78c"/><circle cx="256" cy="258.058" fill="#ffe8a0" r="29.279"/><path d="m440.467 286.418c-10.902 0-19.771 8.869-19.771 19.771s8.869 19.772 19.771 19.772 19.772-8.869 19.772-19.772c0-10.902-8.869-19.771-19.772-19.771z" fill="#7a8c98"/><path d="m133.49 33.999c-19.514-19.515-51.269-19.514-70.783 0-19.515 19.515-19.515 51.268 0 70.784 9.758 9.759 22.573 14.636 35.391 14.636 12.816 0 25.636-4.88 35.392-14.636 19.515-19.516 19.515-51.269 0-70.784z" fill="#fe7d43"/><path d="m84.838 101.45c-19.515-19.516-19.515-51.269 0-70.784 5.001-5.001 10.809-8.712 17.007-11.15-14.036-1.044-28.43 3.774-39.139 14.483-19.515 19.515-19.515 51.268 0 70.784 9.758 9.759 22.573 14.636 35.391 14.636 6.246 0 12.491-1.168 18.384-3.486-11.54-.859-22.837-5.677-31.643-14.483z" fill="#fd5426"/><circle cx="375.014" cy="343.624" fill="#0ed2b3" r="31.444"/><path d="m400.014 324.559c.177 1.352.278 2.728.278 4.128 0 17.366-14.078 31.444-31.444 31.444-10.196 0-19.254-4.857-25-12.379 2.023 15.414 15.2 27.317 31.166 27.317 17.366 0 31.444-14.078 31.444-31.444 0-7.171-2.404-13.777-6.444-19.066z" fill="#0ab69f"/><path d="m148.339 70.346c-.071-.096-.151-.182-.226-.274-.094 6.833-1.582 13.646-4.449 19.984 8.23 13.259 9.103 20.231 8.728 22.12-1.985.373-10.12-.588-26.253-11.392-10.475-7.014-21.665-16.376-32.361-27.073-10.697-10.695-20.058-21.886-27.074-32.361-10.803-16.132-11.763-24.271-11.391-26.253 1.893-.373 8.858.498 22.112 8.723 6.342-2.869 13.16-4.348 19.997-4.44-.093-.076-.181-.157-.279-.229-17.612-13.074-41.021-26.243-52.521-14.744-8.114 8.113-4.788 23.774 9.62 45.289 7.55 11.274 17.554 23.246 28.929 34.622 11.376 11.376 23.348 21.38 34.623 28.929 13.843 9.271 25.261 13.954 33.806 13.953 4.735 0 8.589-1.439 11.482-4.332 11.5-11.501-1.67-34.91-14.743-52.522z" fill="#8379c1"/></g></svg>